<mxfile host="65bd71144e">
    <diagram name="Page-1" id="R8ShWj65k2d1_034N_0J">
        <mxGraphModel dx="3692" dy="2080" grid="0" gridSize="10" guides="1" tooltips="1" connect="1" arrows="1" fold="1" page="1" pageScale="1" pageWidth="850" pageHeight="1100" background="#ffffff" math="0" shadow="0">
            <root>
                <mxCell id="0"/>
                <mxCell id="1" parent="0"/>
                <mxCell id="vTEYE7jXfzrKTqBQIIHb-8" style="rounded=0;orthogonalLoop=1;jettySize=auto;html=1;entryX=0.5;entryY=1;entryDx=0;entryDy=0;strokeColor=#000000;endArrow=none;endFill=0;fontSize=16;fontColor=#000000;" parent="1" source="vTEYE7jXfzrKTqBQIIHb-4" target="vTEYE7jXfzrKTqBQIIHb-7" edge="1">
                    <mxGeometry relative="1" as="geometry">
                        <mxPoint x="-104.01" y="112" as="targetPoint"/>
                    </mxGeometry>
                </mxCell>
                <mxCell id="vTEYE7jXfzrKTqBQIIHb-11" style="rounded=0;orthogonalLoop=1;jettySize=auto;html=1;exitX=0.75;exitY=0;exitDx=0;exitDy=0;entryX=0.5;entryY=1;entryDx=0;entryDy=0;strokeColor=#000000;endArrow=none;endFill=0;fontSize=16;fontColor=#000000;" parent="1" source="vTEYE7jXfzrKTqBQIIHb-4" target="vTEYE7jXfzrKTqBQIIHb-10" edge="1">
                    <mxGeometry relative="1" as="geometry"/>
                </mxCell>
                <mxCell id="vTEYE7jXfzrKTqBQIIHb-4" value="&lt;font style=&quot;font-size: 16px;&quot;&gt;&lt;b style=&quot;font-size: 16px;&quot;&gt;Payments&lt;/b&gt;&lt;/font&gt;" style="whiteSpace=wrap;html=1;align=center;fillStyle=auto;fillColor=#C2C2C2;fontSize=16;fontColor=#000000;strokeColor=#000000;" parent="1" vertex="1">
                    <mxGeometry x="-153" y="171" width="115" height="53" as="geometry"/>
                </mxCell>
                <mxCell id="vTEYE7jXfzrKTqBQIIHb-7" value="&lt;font style=&quot;font-size: 16px;&quot;&gt;&lt;span style=&quot;font-size: 16px;&quot;&gt;&lt;b style=&quot;font-size: 16px;&quot;&gt;ConsumerID&lt;/b&gt;&lt;/span&gt;&lt;/font&gt;" style="ellipse;whiteSpace=wrap;html=1;align=center;fillStyle=solid;fillColor=#C2C2C2;fontSize=16;fontColor=#000000;strokeColor=#000000;" parent="1" vertex="1">
                    <mxGeometry x="-135.01" y="-3" width="111" height="53" as="geometry"/>
                </mxCell>
                <mxCell id="vTEYE7jXfzrKTqBQIIHb-10" value="&lt;font style=&quot;font-size: 16px;&quot;&gt;&lt;span style=&quot;font-size: 16px;&quot;&gt;&lt;b style=&quot;font-size: 16px;&quot;&gt;AmountPaid&lt;/b&gt;&lt;/span&gt;&lt;/font&gt;" style="ellipse;whiteSpace=wrap;html=1;align=center;fillStyle=solid;fillColor=#C2C2C2;fontSize=16;fontColor=#000000;strokeColor=#000000;" parent="1" vertex="1">
                    <mxGeometry x="-24.01" y="47" width="129" height="56" as="geometry"/>
                </mxCell>
                <mxCell id="vTEYE7jXfzrKTqBQIIHb-15" value="" style="rounded=0;orthogonalLoop=1;jettySize=auto;html=1;strokeColor=#000000;endArrow=none;endFill=0;fontSize=16;fontColor=#000000;" parent="1" source="vTEYE7jXfzrKTqBQIIHb-12" target="vTEYE7jXfzrKTqBQIIHb-4" edge="1">
                    <mxGeometry relative="1" as="geometry"/>
                </mxCell>
                <mxCell id="vTEYE7jXfzrKTqBQIIHb-12" value="&lt;font style=&quot;font-size: 16px;&quot;&gt;&lt;span style=&quot;font-size: 16px;&quot;&gt;&lt;b style=&quot;font-size: 16px;&quot;&gt;PaymentDate&lt;/b&gt;&lt;/span&gt;&lt;/font&gt;" style="ellipse;whiteSpace=wrap;html=1;align=center;fillStyle=solid;fillColor=#C2C2C2;fontSize=16;fontColor=#000000;strokeColor=#000000;" parent="1" vertex="1">
                    <mxGeometry x="12.989999999999998" y="162" width="129" height="62" as="geometry"/>
                </mxCell>
                <mxCell id="vTEYE7jXfzrKTqBQIIHb-13" value="&lt;font style=&quot;font-size: 16px;&quot;&gt;&lt;span style=&quot;font-size: 16px;&quot;&gt;&lt;b style=&quot;font-size: 16px;&quot;&gt;Address&lt;/b&gt;&lt;/span&gt;&lt;/font&gt;" style="ellipse;whiteSpace=wrap;html=1;align=center;fillStyle=solid;fillColor=#C2C2C2;fontSize=16;fontColor=#000000;strokeColor=#000000;" parent="1" vertex="1">
                    <mxGeometry x="-331" y="51" width="129" height="56" as="geometry"/>
                </mxCell>
                <mxCell id="vTEYE7jXfzrKTqBQIIHb-14" value="&lt;font style=&quot;font-size: 16px;&quot;&gt;&lt;u style=&quot;font-size: 16px;&quot;&gt;&lt;b style=&quot;font-size: 16px;&quot;&gt;PaymentID&lt;/b&gt;&lt;/u&gt;&lt;/font&gt;" style="ellipse;whiteSpace=wrap;html=1;align=center;fillStyle=solid;fillColor=#C2C2C2;fontSize=16;fontColor=#000000;strokeColor=#000000;" parent="1" vertex="1">
                    <mxGeometry x="-261.01" y="-6" width="129" height="56" as="geometry"/>
                </mxCell>
                <mxCell id="vTEYE7jXfzrKTqBQIIHb-17" style="rounded=0;orthogonalLoop=1;jettySize=auto;html=1;exitX=0.581;exitY=0.964;exitDx=0;exitDy=0;entryX=0.035;entryY=0.132;entryDx=0;entryDy=0;entryPerimeter=0;strokeColor=#000000;endArrow=none;endFill=0;exitPerimeter=0;fontSize=16;fontColor=#000000;" parent="1" source="vTEYE7jXfzrKTqBQIIHb-14" target="vTEYE7jXfzrKTqBQIIHb-4" edge="1">
                    <mxGeometry relative="1" as="geometry">
                        <Array as="points"/>
                    </mxGeometry>
                </mxCell>
                <mxCell id="vTEYE7jXfzrKTqBQIIHb-19" style="rounded=0;orthogonalLoop=1;jettySize=auto;html=1;entryX=0;entryY=0.5;entryDx=0;entryDy=0;strokeColor=#000000;endArrow=none;endFill=0;fontSize=16;fontColor=#000000;" parent="1" source="vTEYE7jXfzrKTqBQIIHb-13" target="vTEYE7jXfzrKTqBQIIHb-4" edge="1">
                    <mxGeometry relative="1" as="geometry">
                        <mxPoint x="-261.99599999999987" y="119.00800000000004" as="sourcePoint"/>
                        <mxPoint x="-151.01" y="218" as="targetPoint"/>
                    </mxGeometry>
                </mxCell>
                <mxCell id="vTEYE7jXfzrKTqBQIIHb-20" style="rounded=0;orthogonalLoop=1;jettySize=auto;html=1;entryX=0.5;entryY=1;entryDx=0;entryDy=0;strokeColor=#000000;endArrow=none;endFill=0;fontSize=16;fontColor=#000000;" parent="1" source="vTEYE7jXfzrKTqBQIIHb-22" target="vTEYE7jXfzrKTqBQIIHb-23" edge="1">
                    <mxGeometry relative="1" as="geometry">
                        <mxPoint x="-668" y="116" as="targetPoint"/>
                    </mxGeometry>
                </mxCell>
                <mxCell id="vTEYE7jXfzrKTqBQIIHb-21" style="rounded=0;orthogonalLoop=1;jettySize=auto;html=1;exitX=0.75;exitY=0;exitDx=0;exitDy=0;entryX=0.5;entryY=1;entryDx=0;entryDy=0;strokeColor=#000000;endArrow=none;endFill=0;fontSize=16;fontColor=#000000;" parent="1" source="vTEYE7jXfzrKTqBQIIHb-22" target="vTEYE7jXfzrKTqBQIIHb-24" edge="1">
                    <mxGeometry relative="1" as="geometry"/>
                </mxCell>
                <mxCell id="vTEYE7jXfzrKTqBQIIHb-110" style="edgeStyle=orthogonalEdgeStyle;rounded=0;orthogonalLoop=1;jettySize=auto;html=1;exitX=0.5;exitY=1;exitDx=0;exitDy=0;entryX=0.5;entryY=0;entryDx=0;entryDy=0;strokeColor=#000000;endArrow=none;endFill=0;fontSize=16;fontColor=#000000;" parent="1" source="vTEYE7jXfzrKTqBQIIHb-22" target="vTEYE7jXfzrKTqBQIIHb-108" edge="1">
                    <mxGeometry relative="1" as="geometry"/>
                </mxCell>
                <mxCell id="vTEYE7jXfzrKTqBQIIHb-22" value="&lt;font style=&quot;font-size: 16px;&quot;&gt;&lt;b style=&quot;font-size: 16px;&quot;&gt;Consumers&lt;/b&gt;&lt;/font&gt;" style="whiteSpace=wrap;html=1;align=center;fillStyle=auto;fillColor=#C2C2C2;fontSize=16;fontColor=#000000;strokeColor=#000000;" parent="1" vertex="1">
                    <mxGeometry x="-717" y="176" width="115" height="53" as="geometry"/>
                </mxCell>
                <mxCell id="vTEYE7jXfzrKTqBQIIHb-23" value="&lt;font style=&quot;font-size: 16px;&quot;&gt;&lt;u style=&quot;font-size: 16px;&quot;&gt;&lt;b style=&quot;font-size: 16px;&quot;&gt;ConsumerID&lt;/b&gt;&lt;/u&gt;&lt;/font&gt;" style="ellipse;whiteSpace=wrap;html=1;align=center;fillStyle=solid;fillColor=#C2C2C2;fontSize=16;fontColor=#000000;strokeColor=#000000;" parent="1" vertex="1">
                    <mxGeometry x="-715" y="57" width="111" height="53" as="geometry"/>
                </mxCell>
                <mxCell id="vTEYE7jXfzrKTqBQIIHb-24" value="&lt;font style=&quot;font-size: 16px;&quot;&gt;&lt;span style=&quot;font-size: 16px;&quot;&gt;&lt;b style=&quot;font-size: 16px;&quot;&gt;MeterNumber&lt;/b&gt;&lt;/span&gt;&lt;/font&gt;" style="ellipse;whiteSpace=wrap;html=1;align=center;fillStyle=solid;fillColor=#C2C2C2;fontSize=16;fontColor=#000000;strokeColor=#000000;" parent="1" vertex="1">
                    <mxGeometry x="-588" y="51" width="129" height="56" as="geometry"/>
                </mxCell>
                <mxCell id="vTEYE7jXfzrKTqBQIIHb-25" value="" style="rounded=0;orthogonalLoop=1;jettySize=auto;html=1;strokeColor=#000000;endArrow=none;endFill=0;fontSize=16;fontColor=#000000;" parent="1" source="vTEYE7jXfzrKTqBQIIHb-26" target="vTEYE7jXfzrKTqBQIIHb-22" edge="1">
                    <mxGeometry relative="1" as="geometry"/>
                </mxCell>
                <mxCell id="vTEYE7jXfzrKTqBQIIHb-26" value="&lt;font style=&quot;font-size: 16px;&quot;&gt;&lt;span style=&quot;font-size: 16px;&quot;&gt;&lt;b style=&quot;font-size: 16px;&quot;&gt;PhoneNumber&lt;/b&gt;&lt;/span&gt;&lt;/font&gt;" style="ellipse;whiteSpace=wrap;html=1;align=center;fillStyle=solid;fillColor=#C2C2C2;fontSize=16;fontColor=#000000;strokeColor=#000000;" parent="1" vertex="1">
                    <mxGeometry x="-895" y="176" width="129" height="62" as="geometry"/>
                </mxCell>
                <mxCell id="vTEYE7jXfzrKTqBQIIHb-27" value="&lt;font style=&quot;font-size: 16px;&quot;&gt;&lt;span style=&quot;font-size: 16px;&quot;&gt;&lt;b style=&quot;font-size: 16px;&quot;&gt;Address&lt;/b&gt;&lt;/span&gt;&lt;/font&gt;" style="ellipse;whiteSpace=wrap;html=1;align=center;fillStyle=solid;fillColor=#C2C2C2;fontSize=16;fontColor=#000000;strokeColor=#000000;" parent="1" vertex="1">
                    <mxGeometry x="-890" y="103" width="129" height="56" as="geometry"/>
                </mxCell>
                <mxCell id="vTEYE7jXfzrKTqBQIIHb-28" value="&lt;font style=&quot;font-size: 16px;&quot;&gt;&lt;span style=&quot;font-size: 16px;&quot;&gt;&lt;b style=&quot;font-size: 16px;&quot;&gt;Name&lt;/b&gt;&lt;/span&gt;&lt;/font&gt;" style="ellipse;whiteSpace=wrap;html=1;align=center;fillStyle=solid;fillColor=#C2C2C2;fontSize=16;fontColor=#000000;strokeColor=#000000;" parent="1" vertex="1">
                    <mxGeometry x="-850" y="30" width="129" height="56" as="geometry"/>
                </mxCell>
                <mxCell id="vTEYE7jXfzrKTqBQIIHb-29" style="rounded=0;orthogonalLoop=1;jettySize=auto;html=1;exitX=1;exitY=1;exitDx=0;exitDy=0;entryX=0.035;entryY=0.132;entryDx=0;entryDy=0;entryPerimeter=0;strokeColor=#000000;endArrow=none;endFill=0;fontSize=16;fontColor=#000000;" parent="1" source="vTEYE7jXfzrKTqBQIIHb-28" target="vTEYE7jXfzrKTqBQIIHb-22" edge="1">
                    <mxGeometry relative="1" as="geometry"/>
                </mxCell>
                <mxCell id="vTEYE7jXfzrKTqBQIIHb-30" style="rounded=0;orthogonalLoop=1;jettySize=auto;html=1;exitX=0.953;exitY=0.643;exitDx=0;exitDy=0;entryX=0;entryY=0.5;entryDx=0;entryDy=0;strokeColor=#000000;endArrow=none;endFill=0;exitPerimeter=0;fontSize=16;fontColor=#000000;" parent="1" source="vTEYE7jXfzrKTqBQIIHb-27" target="vTEYE7jXfzrKTqBQIIHb-22" edge="1">
                    <mxGeometry relative="1" as="geometry">
                        <mxPoint x="-763" y="179" as="sourcePoint"/>
                        <mxPoint x="-715" y="222" as="targetPoint"/>
                    </mxGeometry>
                </mxCell>
                <mxCell id="vTEYE7jXfzrKTqBQIIHb-33" style="rounded=0;orthogonalLoop=1;jettySize=auto;html=1;exitX=1;exitY=0.5;exitDx=0;exitDy=0;entryX=0;entryY=0.5;entryDx=0;entryDy=0;strokeColor=#000000;endArrow=none;endFill=0;strokeWidth=2;fontSize=16;fontColor=#000000;" parent="1" source="vTEYE7jXfzrKTqBQIIHb-32" target="vTEYE7jXfzrKTqBQIIHb-4" edge="1">
                    <mxGeometry relative="1" as="geometry">
                        <mxPoint x="-264" y="199" as="targetPoint"/>
                    </mxGeometry>
                </mxCell>
                <mxCell id="vTEYE7jXfzrKTqBQIIHb-35" style="rounded=0;orthogonalLoop=1;jettySize=auto;html=1;exitX=0;exitY=0.5;exitDx=0;exitDy=0;entryX=1;entryY=0.5;entryDx=0;entryDy=0;strokeColor=#000000;endArrow=ERmandOne;endFill=0;strokeWidth=2;fontSize=16;fontColor=#000000;" parent="1" source="vTEYE7jXfzrKTqBQIIHb-32" target="vTEYE7jXfzrKTqBQIIHb-22" edge="1">
                    <mxGeometry relative="1" as="geometry"/>
                </mxCell>
                <mxCell id="vTEYE7jXfzrKTqBQIIHb-32" value="&lt;font style=&quot;font-size: 16px;&quot;&gt;&lt;b style=&quot;font-size: 16px;&quot;&gt;makes&lt;/b&gt;&lt;/font&gt;" style="shape=rhombus;double=1;perimeter=rhombusPerimeter;whiteSpace=wrap;html=1;align=center;fillColor=#C2C2C2;fontSize=16;fontColor=#000000;strokeColor=#000000;" parent="1" vertex="1">
                    <mxGeometry x="-482" y="167.5" width="120" height="60" as="geometry"/>
                </mxCell>
                <mxCell id="vTEYE7jXfzrKTqBQIIHb-49" style="rounded=0;orthogonalLoop=1;jettySize=auto;html=1;exitX=0.75;exitY=0;exitDx=0;exitDy=0;entryX=0.5;entryY=1;entryDx=0;entryDy=0;strokeColor=#000000;endArrow=none;endFill=0;fontSize=16;fontColor=#000000;" parent="1" source="vTEYE7jXfzrKTqBQIIHb-50" target="vTEYE7jXfzrKTqBQIIHb-52" edge="1">
                    <mxGeometry relative="1" as="geometry"/>
                </mxCell>
                <mxCell id="vTEYE7jXfzrKTqBQIIHb-68" style="rounded=0;orthogonalLoop=1;jettySize=auto;html=1;exitX=0.5;exitY=0;exitDx=0;exitDy=0;strokeColor=#000000;endArrow=ERmandOne;endFill=0;strokeWidth=2;fontSize=16;fontColor=#000000;" parent="1" source="vTEYE7jXfzrKTqBQIIHb-50" target="vTEYE7jXfzrKTqBQIIHb-4" edge="1">
                    <mxGeometry relative="1" as="geometry"/>
                </mxCell>
                <mxCell id="vTEYE7jXfzrKTqBQIIHb-74" style="edgeStyle=orthogonalEdgeStyle;rounded=0;orthogonalLoop=1;jettySize=auto;html=1;strokeColor=#000000;endArrow=circle;endFill=0;curved=1;exitX=0;exitY=0;exitDx=0;exitDy=0;fontSize=16;fontColor=#000000;" parent="1" source="vTEYE7jXfzrKTqBQIIHb-50" edge="1">
                    <mxGeometry relative="1" as="geometry">
                        <mxPoint x="-88" y="507" as="targetPoint"/>
                        <mxPoint x="-148" y="535" as="sourcePoint"/>
                        <Array as="points">
                            <mxPoint x="-153" y="504"/>
                            <mxPoint x="-137" y="504"/>
                            <mxPoint x="-137" y="507"/>
                        </Array>
                    </mxGeometry>
                </mxCell>
                <mxCell id="vTEYE7jXfzrKTqBQIIHb-77" style="edgeStyle=orthogonalEdgeStyle;rounded=0;orthogonalLoop=1;jettySize=auto;html=1;exitX=0.75;exitY=0;exitDx=0;exitDy=0;curved=1;endArrow=none;endFill=0;strokeColor=#000000;fontSize=16;fontColor=#000000;" parent="1" source="vTEYE7jXfzrKTqBQIIHb-50" edge="1">
                    <mxGeometry relative="1" as="geometry">
                        <mxPoint x="-90" y="509" as="targetPoint"/>
                        <Array as="points">
                            <mxPoint x="-78" y="538"/>
                            <mxPoint x="-78" y="509"/>
                            <mxPoint x="-94" y="509"/>
                        </Array>
                    </mxGeometry>
                </mxCell>
                <mxCell id="vTEYE7jXfzrKTqBQIIHb-80" style="rounded=0;orthogonalLoop=1;jettySize=auto;html=1;entryX=1;entryY=0.5;entryDx=0;entryDy=0;strokeColor=#000000;endArrow=none;endFill=0;startArrow=ERmany;startFill=0;strokeWidth=2;fontSize=16;fontColor=#000000;" parent="1" source="vTEYE7jXfzrKTqBQIIHb-50" edge="1">
                    <mxGeometry relative="1" as="geometry">
                        <mxPoint x="-153.21" y="549.82" as="sourcePoint"/>
                        <mxPoint x="-379.78359312880724" y="415.99640687119296" as="targetPoint"/>
                        <Array as="points">
                            <mxPoint x="-162" y="550"/>
                            <mxPoint x="-191" y="550"/>
                        </Array>
                    </mxGeometry>
                </mxCell>
                <mxCell id="vTEYE7jXfzrKTqBQIIHb-130" style="rounded=0;orthogonalLoop=1;jettySize=auto;html=1;exitX=0;exitY=0.25;exitDx=0;exitDy=0;strokeColor=#000000;endArrow=none;endFill=0;fontSize=16;fontColor=#000000;" parent="1" source="vTEYE7jXfzrKTqBQIIHb-50" edge="1">
                    <mxGeometry relative="1" as="geometry">
                        <mxPoint x="-528.5925925925926" y="590.7037037037037" as="targetPoint"/>
                    </mxGeometry>
                </mxCell>
                <mxCell id="vTEYE7jXfzrKTqBQIIHb-50" value="&lt;font style=&quot;font-size: 16px;&quot;&gt;&lt;b style=&quot;font-size: 16px;&quot;&gt;Orders&lt;/b&gt;&lt;/font&gt;" style="whiteSpace=wrap;html=1;align=center;fillStyle=auto;fillColor=#C2C2C2;fontSize=16;fontColor=#000000;strokeColor=#000000;" parent="1" vertex="1">
                    <mxGeometry x="-150" y="538" width="115" height="53" as="geometry"/>
                </mxCell>
                <mxCell id="vTEYE7jXfzrKTqBQIIHb-52" value="&lt;font style=&quot;font-size: 16px;&quot;&gt;&lt;span style=&quot;font-size: 16px;&quot;&gt;&lt;b style=&quot;font-size: 16px;&quot;&gt;AmountPaid&lt;/b&gt;&lt;/span&gt;&lt;/font&gt;" style="ellipse;whiteSpace=wrap;html=1;align=center;fillStyle=solid;fillColor=#C2C2C2;fontSize=16;fontColor=#000000;strokeColor=#000000;" parent="1" vertex="1">
                    <mxGeometry x="8.979999999999997" y="414" width="129" height="56" as="geometry"/>
                </mxCell>
                <mxCell id="vTEYE7jXfzrKTqBQIIHb-53" value="" style="rounded=0;orthogonalLoop=1;jettySize=auto;html=1;strokeColor=#000000;endArrow=none;endFill=0;fontSize=16;fontColor=#000000;" parent="1" source="vTEYE7jXfzrKTqBQIIHb-54" target="vTEYE7jXfzrKTqBQIIHb-50" edge="1">
                    <mxGeometry relative="1" as="geometry"/>
                </mxCell>
                <mxCell id="vTEYE7jXfzrKTqBQIIHb-54" value="&lt;font style=&quot;font-size: 16px;&quot;&gt;&lt;span style=&quot;font-size: 16px;&quot;&gt;&lt;b style=&quot;font-size: 16px;&quot;&gt;PaymentDate&lt;/b&gt;&lt;/span&gt;&lt;/font&gt;" style="ellipse;whiteSpace=wrap;html=1;align=center;fillStyle=solid;fillColor=#C2C2C2;fontSize=16;fontColor=#000000;strokeColor=#000000;" parent="1" vertex="1">
                    <mxGeometry x="45.98" y="529" width="129" height="62" as="geometry"/>
                </mxCell>
                <mxCell id="vTEYE7jXfzrKTqBQIIHb-55" value="&lt;font style=&quot;font-size: 16px;&quot;&gt;&lt;span style=&quot;font-size: 16px;&quot;&gt;&lt;b style=&quot;font-size: 16px;&quot;&gt;Address&lt;/b&gt;&lt;/span&gt;&lt;/font&gt;" style="ellipse;whiteSpace=wrap;html=1;align=center;fillStyle=solid;fillColor=#C2C2C2;fontSize=16;fontColor=#000000;strokeColor=#000000;" parent="1" vertex="1">
                    <mxGeometry x="-308" y="599" width="129" height="56" as="geometry"/>
                </mxCell>
                <mxCell id="vTEYE7jXfzrKTqBQIIHb-56" value="&lt;font style=&quot;font-size: 16px;&quot;&gt;&lt;u style=&quot;font-size: 16px;&quot;&gt;&lt;b style=&quot;font-size: 16px;&quot;&gt;OrderID&lt;/b&gt;&lt;/u&gt;&lt;/font&gt;" style="ellipse;whiteSpace=wrap;html=1;align=center;fillStyle=solid;fillColor=#C2C2C2;fontSize=16;fontColor=#000000;strokeColor=#000000;" parent="1" vertex="1">
                    <mxGeometry x="-301.01" y="371" width="129" height="56" as="geometry"/>
                </mxCell>
                <mxCell id="vTEYE7jXfzrKTqBQIIHb-57" style="rounded=0;orthogonalLoop=1;jettySize=auto;html=1;exitX=0.581;exitY=0.964;exitDx=0;exitDy=0;strokeColor=#000000;endArrow=none;endFill=0;exitPerimeter=0;fontSize=16;fontColor=#000000;" parent="1" source="vTEYE7jXfzrKTqBQIIHb-56" edge="1">
                    <mxGeometry relative="1" as="geometry">
                        <Array as="points"/>
                        <mxPoint x="-152" y="537" as="targetPoint"/>
                    </mxGeometry>
                </mxCell>
                <mxCell id="vTEYE7jXfzrKTqBQIIHb-58" style="rounded=0;orthogonalLoop=1;jettySize=auto;html=1;entryX=0;entryY=0.5;entryDx=0;entryDy=0;strokeColor=#000000;endArrow=none;endFill=0;fontSize=16;fontColor=#000000;" parent="1" source="vTEYE7jXfzrKTqBQIIHb-55" target="vTEYE7jXfzrKTqBQIIHb-50" edge="1">
                    <mxGeometry relative="1" as="geometry">
                        <mxPoint x="-229.00599999999986" y="486.00800000000004" as="sourcePoint"/>
                        <mxPoint x="-118.01999999999998" y="585" as="targetPoint"/>
                    </mxGeometry>
                </mxCell>
                <mxCell id="vTEYE7jXfzrKTqBQIIHb-65" style="rounded=0;orthogonalLoop=1;jettySize=auto;html=1;exitX=0.5;exitY=1;exitDx=0;exitDy=0;endArrow=none;endFill=0;strokeColor=#000000;fontSize=16;fontColor=#000000;" parent="1" edge="1">
                    <mxGeometry relative="1" as="geometry">
                        <mxPoint x="-73" y="540" as="targetPoint"/>
                        <mxPoint x="42.98999999999978" y="374.9999999999998" as="sourcePoint"/>
                    </mxGeometry>
                </mxCell>
                <mxCell id="vTEYE7jXfzrKTqBQIIHb-64" value="&lt;font style=&quot;font-size: 16px;&quot;&gt;&lt;span style=&quot;border-bottom: 3px dashed ; border-color:black; border-top-color: rgb(252, 252, 252); border-right-color: rgb(252, 252, 252); border-left-color: rgb(252, 252, 252); font-size: 16px;&quot;&gt;&lt;b style=&quot;font-size: 16px;&quot;&gt;OrderID&lt;/b&gt;&lt;/span&gt;&lt;/font&gt;" style="ellipse;whiteSpace=wrap;html=1;align=center;fillStyle=solid;fillColor=#C2C2C2;fontSize=16;fontColor=#000000;strokeColor=#000000;" parent="1" vertex="1">
                    <mxGeometry x="-44" y="315" width="135" height="63" as="geometry"/>
                </mxCell>
                <mxCell id="vTEYE7jXfzrKTqBQIIHb-66" style="edgeStyle=orthogonalEdgeStyle;rounded=0;orthogonalLoop=1;jettySize=auto;html=1;exitX=0.5;exitY=1;exitDx=0;exitDy=0;entryX=0.344;entryY=1.016;entryDx=0;entryDy=0;entryPerimeter=0;fontSize=16;fontColor=#000000;strokeColor=#000000;" parent="1" source="vTEYE7jXfzrKTqBQIIHb-64" target="vTEYE7jXfzrKTqBQIIHb-64" edge="1">
                    <mxGeometry relative="1" as="geometry"/>
                </mxCell>
                <mxCell id="vTEYE7jXfzrKTqBQIIHb-78" value="&lt;font style=&quot;font-size: 16px;&quot;&gt;&lt;b style=&quot;font-size: 16px;&quot;&gt;places&lt;/b&gt;&lt;/font&gt;" style="shape=rhombus;double=1;perimeter=rhombusPerimeter;whiteSpace=wrap;html=1;align=center;fillColor=#C2C2C2;rotation=45;fontSize=16;fontColor=#000000;strokeColor=#000000;" parent="1" vertex="1">
                    <mxGeometry x="-479" y="345" width="120" height="60" as="geometry"/>
                </mxCell>
                <mxCell id="vTEYE7jXfzrKTqBQIIHb-79" style="rounded=0;orthogonalLoop=1;jettySize=auto;html=1;exitX=1;exitY=1;exitDx=0;exitDy=0;entryX=0.068;entryY=0.48;entryDx=0;entryDy=0;entryPerimeter=0;strokeColor=#000000;endArrow=none;endFill=0;fontSize=16;fontColor=#000000;" parent="1" source="vTEYE7jXfzrKTqBQIIHb-22" target="vTEYE7jXfzrKTqBQIIHb-78" edge="1">
                    <mxGeometry relative="1" as="geometry"/>
                </mxCell>
                <mxCell id="vTEYE7jXfzrKTqBQIIHb-122" style="rounded=0;orthogonalLoop=1;jettySize=auto;html=1;entryX=0.5;entryY=0;entryDx=0;entryDy=0;strokeColor=#000000;endArrow=none;endFill=0;fontSize=16;fontColor=#000000;" parent="1" target="vTEYE7jXfzrKTqBQIIHb-121" edge="1">
                    <mxGeometry relative="1" as="geometry">
                        <mxPoint x="-686" y="594" as="sourcePoint"/>
                    </mxGeometry>
                </mxCell>
                <mxCell id="vTEYE7jXfzrKTqBQIIHb-128" style="edgeStyle=entityRelationEdgeStyle;rounded=0;orthogonalLoop=1;jettySize=auto;html=1;exitX=1;exitY=1;exitDx=0;exitDy=0;strokeColor=#000000;endArrow=oval;endFill=0;curved=1;fontSize=16;fontColor=#000000;" parent="1" source="vTEYE7jXfzrKTqBQIIHb-107" edge="1">
                    <mxGeometry relative="1" as="geometry">
                        <mxPoint x="-531" y="591" as="targetPoint"/>
                    </mxGeometry>
                </mxCell>
                <mxCell id="vTEYE7jXfzrKTqBQIIHb-129" style="edgeStyle=orthogonalEdgeStyle;rounded=0;orthogonalLoop=1;jettySize=auto;html=1;exitX=1;exitY=0.25;exitDx=0;exitDy=0;strokeColor=#000000;curved=1;endArrow=none;endFill=0;fontSize=16;fontColor=#000000;" parent="1" source="vTEYE7jXfzrKTqBQIIHb-107" edge="1">
                    <mxGeometry relative="1" as="geometry">
                        <mxPoint x="-528" y="593" as="targetPoint"/>
                        <Array as="points">
                            <mxPoint x="-564" y="564"/>
                            <mxPoint x="-564" y="594"/>
                            <mxPoint x="-528" y="594"/>
                        </Array>
                    </mxGeometry>
                </mxCell>
                <mxCell id="vTEYE7jXfzrKTqBQIIHb-107" value="&lt;font style=&quot;font-size: 16px;&quot;&gt;&lt;span style=&quot;font-size: 16px;&quot;&gt;&lt;b style=&quot;font-size: 16px;&quot;&gt;Transaction&lt;/b&gt;&lt;/span&gt;&lt;/font&gt;" style="whiteSpace=wrap;html=1;align=center;fillStyle=auto;fillColor=#C2C2C2;fontSize=16;fontColor=#000000;strokeColor=#000000;" parent="1" vertex="1">
                    <mxGeometry x="-715" y="551" width="115" height="53" as="geometry"/>
                </mxCell>
                <mxCell id="vTEYE7jXfzrKTqBQIIHb-109" style="rounded=0;orthogonalLoop=1;jettySize=auto;html=1;exitX=0.5;exitY=1;exitDx=0;exitDy=0;strokeColor=#000000;endArrow=ERmany;endFill=0;strokeWidth=2;fontSize=16;fontColor=#000000;" parent="1" source="vTEYE7jXfzrKTqBQIIHb-108" target="vTEYE7jXfzrKTqBQIIHb-107" edge="1">
                    <mxGeometry relative="1" as="geometry"/>
                </mxCell>
                <mxCell id="vTEYE7jXfzrKTqBQIIHb-108" value="&lt;font style=&quot;font-size: 16px;&quot;&gt;&lt;b style=&quot;font-size: 16px;&quot;&gt;initiate&lt;/b&gt;&lt;/font&gt;" style="shape=rhombus;double=1;perimeter=rhombusPerimeter;whiteSpace=wrap;html=1;align=center;fillColor=#C2C2C2;fontSize=16;fontColor=#000000;strokeColor=#000000;" parent="1" vertex="1">
                    <mxGeometry x="-719.5" y="364" width="120" height="60" as="geometry"/>
                </mxCell>
                <mxCell id="vTEYE7jXfzrKTqBQIIHb-112" style="rounded=0;orthogonalLoop=1;jettySize=auto;html=1;exitX=0;exitY=1;exitDx=0;exitDy=0;entryX=0.75;entryY=0;entryDx=0;entryDy=0;strokeColor=#000000;endArrow=none;endFill=0;fontSize=16;fontColor=#000000;" parent="1" source="vTEYE7jXfzrKTqBQIIHb-111" target="vTEYE7jXfzrKTqBQIIHb-107" edge="1">
                    <mxGeometry relative="1" as="geometry"/>
                </mxCell>
                <mxCell id="vTEYE7jXfzrKTqBQIIHb-111" value="&lt;font style=&quot;font-size: 16px;&quot;&gt;&lt;span style=&quot;border-bottom: 3px dashed ; border-color:black; border-top-color: rgb(252, 252, 252); border-right-color: rgb(252, 252, 252); border-left-color: rgb(252, 252, 252); font-size: 16px;&quot;&gt;&lt;b style=&quot;font-size: 16px;&quot;&gt;OrderID&lt;/b&gt;&lt;/span&gt;&lt;/font&gt;" style="ellipse;whiteSpace=wrap;html=1;align=center;fillStyle=solid;fillColor=#C2C2C2;fontSize=16;fontColor=#000000;strokeColor=#000000;" parent="1" vertex="1">
                    <mxGeometry x="-609" y="420" width="135" height="63" as="geometry"/>
                </mxCell>
                <mxCell id="vTEYE7jXfzrKTqBQIIHb-116" style="rounded=0;orthogonalLoop=1;jettySize=auto;html=1;exitX=0.5;exitY=1;exitDx=0;exitDy=0;entryX=0;entryY=0.5;entryDx=0;entryDy=0;strokeColor=#000000;endArrow=none;endFill=0;fontSize=16;fontColor=#000000;" parent="1" source="vTEYE7jXfzrKTqBQIIHb-114" target="vTEYE7jXfzrKTqBQIIHb-107" edge="1">
                    <mxGeometry relative="1" as="geometry"/>
                </mxCell>
                <mxCell id="vTEYE7jXfzrKTqBQIIHb-114" value="&lt;font style=&quot;font-size: 16px;&quot;&gt;&lt;span style=&quot;font-size: 16px;&quot;&gt;&lt;b style=&quot;font-size: 16px;&quot;&gt;transactionID&lt;/b&gt;&lt;/span&gt;&lt;/font&gt;" style="ellipse;whiteSpace=wrap;html=1;align=center;fillStyle=solid;fillColor=#C2C2C2;fontSize=16;fontColor=#000000;strokeColor=#000000;" parent="1" vertex="1">
                    <mxGeometry x="-850" y="410" width="129" height="56" as="geometry"/>
                </mxCell>
                <mxCell id="vTEYE7jXfzrKTqBQIIHb-118" style="rounded=0;orthogonalLoop=1;jettySize=auto;html=1;exitX=1;exitY=0.5;exitDx=0;exitDy=0;strokeColor=#000000;endArrow=none;endFill=0;fontSize=16;fontColor=#000000;" parent="1" source="vTEYE7jXfzrKTqBQIIHb-117" target="vTEYE7jXfzrKTqBQIIHb-107" edge="1">
                    <mxGeometry relative="1" as="geometry"/>
                </mxCell>
                <mxCell id="vTEYE7jXfzrKTqBQIIHb-117" value="&lt;font style=&quot;font-size: 16px;&quot;&gt;&lt;span style=&quot;border-bottom: 3px dashed ; border-color:black; border-top-color: rgb(252, 252, 252); border-right-color: rgb(252, 252, 252); border-left-color: rgb(252, 252, 252); font-size: 16px;&quot;&gt;&lt;b style=&quot;font-size: 16px;&quot;&gt;OrderID&lt;/b&gt;&lt;/span&gt;&lt;/font&gt;" style="ellipse;whiteSpace=wrap;html=1;align=center;fillStyle=solid;fillColor=#C2C2C2;fontSize=16;fontColor=#000000;strokeColor=#000000;" parent="1" vertex="1">
                    <mxGeometry x="-973" y="470" width="135" height="63" as="geometry"/>
                </mxCell>
                <mxCell id="vTEYE7jXfzrKTqBQIIHb-120" style="rounded=0;orthogonalLoop=1;jettySize=auto;html=1;exitX=1;exitY=0.5;exitDx=0;exitDy=0;endArrow=none;endFill=0;strokeColor=#000000;entryX=0.07;entryY=0.981;entryDx=0;entryDy=0;entryPerimeter=0;fontSize=16;fontColor=#000000;" parent="1" source="vTEYE7jXfzrKTqBQIIHb-119" target="vTEYE7jXfzrKTqBQIIHb-107" edge="1">
                    <mxGeometry relative="1" as="geometry">
                        <mxPoint x="-714" y="606" as="targetPoint"/>
                    </mxGeometry>
                </mxCell>
                <mxCell id="vTEYE7jXfzrKTqBQIIHb-119" value="&lt;font style=&quot;font-size: 16px;&quot;&gt;&lt;span style=&quot;font-size: 16px;&quot;&gt;&lt;b style=&quot;font-size: 16px;&quot;&gt;transactionStatus&lt;/b&gt;&lt;/span&gt;&lt;/font&gt;" style="ellipse;whiteSpace=wrap;html=1;align=center;fillStyle=solid;fillColor=#C2C2C2;fontSize=16;fontColor=#000000;strokeColor=#000000;" parent="1" vertex="1">
                    <mxGeometry x="-1011" y="561" width="155" height="74" as="geometry"/>
                </mxCell>
                <mxCell id="vTEYE7jXfzrKTqBQIIHb-121" value="&lt;font style=&quot;font-size: 16px;&quot;&gt;&lt;span style=&quot;border-bottom: 3px dashed ; border-color:black; border-top-color: rgb(252, 252, 252); border-right-color: rgb(252, 252, 252); border-left-color: rgb(252, 252, 252); font-size: 16px;&quot;&gt;&lt;b style=&quot;font-size: 16px;&quot;&gt;OrderID&lt;/b&gt;&lt;/span&gt;&lt;/font&gt;" style="ellipse;whiteSpace=wrap;html=1;align=center;fillStyle=solid;fillColor=#C2C2C2;fontSize=16;fontColor=#000000;strokeColor=#000000;" parent="1" vertex="1">
                    <mxGeometry x="-896" y="677" width="135" height="63" as="geometry"/>
                </mxCell>
                <mxCell id="vTEYE7jXfzrKTqBQIIHb-123" value="&lt;font style=&quot;font-size: 16px;&quot;&gt;&lt;span style=&quot;font-size: 16px;&quot;&gt;&lt;b style=&quot;font-size: 16px;&quot;&gt;Engagement&lt;/b&gt;&lt;/span&gt;&lt;/font&gt;" style="ellipse;whiteSpace=wrap;html=1;align=center;fillStyle=solid;fillColor=#C2C2C2;fontSize=16;fontColor=#000000;strokeColor=#000000;" parent="1" vertex="1">
                    <mxGeometry x="-588" y="649" width="129" height="56" as="geometry"/>
                </mxCell>
                <mxCell id="vTEYE7jXfzrKTqBQIIHb-125" style="rounded=0;orthogonalLoop=1;jettySize=auto;html=1;exitX=1;exitY=1;exitDx=0;exitDy=0;entryX=0.049;entryY=0.377;entryDx=0;entryDy=0;entryPerimeter=0;strokeColor=#000000;endArrow=none;endFill=0;fontSize=16;fontColor=#000000;" parent="1" source="vTEYE7jXfzrKTqBQIIHb-107" target="vTEYE7jXfzrKTqBQIIHb-123" edge="1">
                    <mxGeometry relative="1" as="geometry"/>
                </mxCell>
                <mxCell id="vTEYE7jXfzrKTqBQIIHb-137" style="rounded=0;orthogonalLoop=1;jettySize=auto;html=1;exitX=0;exitY=0.5;exitDx=0;exitDy=0;entryX=1;entryY=0.5;entryDx=0;entryDy=0;strokeColor=#000000;endArrow=none;endFill=0;startArrow=ERmandOne;startFill=0;fontSize=16;fontColor=#000000;" parent="1" source="vTEYE7jXfzrKTqBQIIHb-131" target="vTEYE7jXfzrKTqBQIIHb-136" edge="1">
                    <mxGeometry relative="1" as="geometry"/>
                </mxCell>
                <mxCell id="vTEYE7jXfzrKTqBQIIHb-142" style="rounded=0;orthogonalLoop=1;jettySize=auto;html=1;exitX=1;exitY=0;exitDx=0;exitDy=0;strokeColor=#000000;endArrow=none;endFill=0;fontSize=16;fontColor=#000000;" parent="1" source="vTEYE7jXfzrKTqBQIIHb-131" target="vTEYE7jXfzrKTqBQIIHb-133" edge="1">
                    <mxGeometry relative="1" as="geometry"/>
                </mxCell>
                <mxCell id="vTEYE7jXfzrKTqBQIIHb-131" value="&lt;font style=&quot;font-size: 16px;&quot;&gt;&lt;b style=&quot;font-size: 16px;&quot;&gt;EnergyProducer&lt;/b&gt;&lt;/font&gt;" style="whiteSpace=wrap;html=1;align=center;fillStyle=auto;fillColor=#C2C2C2;fontSize=16;fontColor=#000000;strokeColor=#000000;" parent="1" vertex="1">
                    <mxGeometry x="-197.5" y="805" width="204" height="91" as="geometry"/>
                </mxCell>
                <mxCell id="vTEYE7jXfzrKTqBQIIHb-140" value="" style="rounded=0;orthogonalLoop=1;jettySize=auto;html=1;strokeColor=#000000;endArrow=none;endFill=0;fontSize=16;fontColor=#000000;" parent="1" source="vTEYE7jXfzrKTqBQIIHb-132" target="vTEYE7jXfzrKTqBQIIHb-131" edge="1">
                    <mxGeometry relative="1" as="geometry"/>
                </mxCell>
                <mxCell id="2" value="" style="edgeStyle=none;html=1;strokeColor=#000000;fontSize=16;fontColor=#000000;startArrow=none;startFill=0;endArrow=none;endFill=0;" edge="1" parent="1" source="vTEYE7jXfzrKTqBQIIHb-132" target="vTEYE7jXfzrKTqBQIIHb-131">
                    <mxGeometry relative="1" as="geometry"/>
                </mxCell>
                <mxCell id="vTEYE7jXfzrKTqBQIIHb-132" value="&lt;font style=&quot;font-size: 16px;&quot;&gt;&lt;span style=&quot;font-size: 16px;&quot;&gt;&lt;b style=&quot;font-size: 16px;&quot;&gt;&lt;u style=&quot;font-size: 16px;&quot;&gt;ProducerID&lt;/u&gt;&lt;/b&gt;&lt;/span&gt;&lt;/font&gt;" style="ellipse;whiteSpace=wrap;html=1;align=center;fillStyle=solid;fillColor=#C2C2C2;fontSize=16;fontColor=#000000;strokeColor=#000000;" parent="1" vertex="1">
                    <mxGeometry x="-160" y="665" width="129" height="62" as="geometry"/>
                </mxCell>
                <mxCell id="vTEYE7jXfzrKTqBQIIHb-133" value="&lt;font style=&quot;font-size: 16px;&quot;&gt;&lt;span style=&quot;font-size: 16px;&quot;&gt;&lt;b style=&quot;font-size: 16px;&quot;&gt;producer_name&lt;/b&gt;&lt;/span&gt;&lt;/font&gt;" style="ellipse;whiteSpace=wrap;html=1;align=center;fillStyle=solid;fillColor=#C2C2C2;fontSize=16;fontColor=#000000;strokeColor=#000000;" parent="1" vertex="1">
                    <mxGeometry x="76" y="705" width="129" height="56" as="geometry"/>
                </mxCell>
                <mxCell id="vTEYE7jXfzrKTqBQIIHb-134" value="&lt;font style=&quot;font-size: 16px;&quot;&gt;&lt;span style=&quot;font-size: 16px;&quot;&gt;&lt;b style=&quot;font-size: 16px;&quot;&gt;producer_type&lt;/b&gt;&lt;/span&gt;&lt;/font&gt;" style="ellipse;whiteSpace=wrap;html=1;align=center;fillStyle=solid;fillColor=#C2C2C2;fontSize=16;fontColor=#000000;strokeColor=#000000;" parent="1" vertex="1">
                    <mxGeometry x="100" y="871" width="129" height="56" as="geometry"/>
                </mxCell>
                <mxCell id="vTEYE7jXfzrKTqBQIIHb-136" value="&lt;font style=&quot;font-size: 16px;&quot;&gt;&lt;b style=&quot;font-size: 16px;&quot;&gt;recieve&lt;/b&gt;&lt;/font&gt;" style="shape=rhombus;double=1;perimeter=rhombusPerimeter;whiteSpace=wrap;html=1;align=center;fillColor=#C2C2C2;fontSize=16;fontColor=#000000;strokeColor=#000000;" parent="1" vertex="1">
                    <mxGeometry x="-514" y="824" width="120" height="60" as="geometry"/>
                </mxCell>
                <mxCell id="vTEYE7jXfzrKTqBQIIHb-138" style="edgeStyle=orthogonalEdgeStyle;rounded=0;orthogonalLoop=1;jettySize=auto;html=1;exitX=0.5;exitY=1;exitDx=0;exitDy=0;strokeColor=#000000;endArrow=none;endFill=0;startArrow=ERmany;startFill=0;fontSize=16;fontColor=#000000;" parent="1" source="vTEYE7jXfzrKTqBQIIHb-107" target="vTEYE7jXfzrKTqBQIIHb-136" edge="1">
                    <mxGeometry relative="1" as="geometry">
                        <Array as="points">
                            <mxPoint x="-654" y="604"/>
                            <mxPoint x="-654" y="854"/>
                        </Array>
                    </mxGeometry>
                </mxCell>
                <mxCell id="vTEYE7jXfzrKTqBQIIHb-144" style="rounded=0;orthogonalLoop=1;jettySize=auto;html=1;exitX=1;exitY=0.75;exitDx=0;exitDy=0;entryX=0;entryY=0.5;entryDx=0;entryDy=0;strokeColor=#000000;endArrow=none;endFill=0;fontSize=16;fontColor=#000000;" parent="1" source="vTEYE7jXfzrKTqBQIIHb-131" target="vTEYE7jXfzrKTqBQIIHb-134" edge="1">
                    <mxGeometry relative="1" as="geometry"/>
                </mxCell>
            </root>
        </mxGraphModel>
    </diagram>
</mxfile>